REM GENRE Hardcore
REM DATE 2006
REM COMMENT "DCue v1.2dev"
PERFORMER "Various"
TITLE "Clubland X-Treme Hardcore 3"
FILE "m218406.wav" WAVE
	TRACK 01 AUDIO
		TITLE "All About"
		PERFORMER "MC Storm,Flyin' & Sparky"
		INDEX 01 00:00:00
	TRACK 02 AUDIO
		TITLE "My Direction (Xtreme Edit)"
		PERFORMER "D-Code Emma"
		INDEX 01 04:08:00
	TRACK 03 AUDIO
		TITLE "Hardcore DJ (Re-Con Remix)"
		PERFORMER "Breeze"
		INDEX 01 08:39:00
	TRACK 04 AUDIO
		TITLE "When Love Becomes A Lie (Breeze Remix)"
		PERFORMER "Liz Kay"
		INDEX 01 12:00:00
	TRACK 05 AUDIO
		TITLE "Only If"
		PERFORMER "Breeze Re-Con"
		INDEX 01 15:43:00
	TRACK 06 AUDIO
		TITLE "Truly, Madly, Deeply (Styles & Breeze Remix)"
		PERFORMER "Cascada"
		INDEX 01 19:03:00
	TRACK 07 AUDIO
		TITLE "Never Be Alone"
		PERFORMER "Breeze Euphony"
		INDEX 01 21:30:00
	TRACK 08 AUDIO
		TITLE "Yeah Yeah (Dougal & Gammer "The Beat's The Bass" Remix)"
		PERFORMER "Bodyrox"
		INDEX 01 26:09:00
	TRACK 09 AUDIO
		TITLE "Gotta Believe (Re-Con Remix)"
		PERFORMER "Ramos, Supreme & Sunset Regime"
		INDEX 01 28:57:00
	TRACK 10 AUDIO
		TITLE "Rise Again"
		PERFORMER "Breeze Lost Witness"
		INDEX 01 33:36:00
	TRACK 11 AUDIO
		TITLE "Crash"
		PERFORMER "SHM Scottie B"
		INDEX 01 38:15:00
	TRACK 12 AUDIO
		TITLE "Dirty"
		PERFORMER "Breeze UFO"
		INDEX 01 43:05:00
	TRACK 13 AUDIO
		TITLE "Touch The Sky"
		PERFORMER "Sy & Unknown Lou Lou"
		INDEX 01 46:18:00
	TRACK 14 AUDIO
		TITLE "Love You For A Lifetime"
		PERFORMER "Breeze Re-Con"
		INDEX 01 51:07:00
	TRACK 15 AUDIO
		TITLE "Walking In The Rain (Styles & Breeze Remix)"
		PERFORMER "Sublime"
		INDEX 01 54:29:00
	TRACK 16 AUDIO
		TITLE "Come On"
		PERFORMER "Styles & Breeze"
		INDEX 01 57:50:00
	TRACK 17 AUDIO
		TITLE "Good To Me"
		PERFORMER "Re-Con & Squad-E"
		INDEX 01 61:46:00
	TRACK 18 AUDIO
		TITLE "Let Me Fly (Jamie Ritmen Remix)"
		PERFORMER "Infextious"
		INDEX 01 66:25:00
